<?xml version="1.0" encoding="UTF-8"?>
<svg width="621px" height="407px" viewBox="0 0 621 407" version="1.1" xmlns="http://www.w3.org/2000/svg" xmlns:xlink="http://www.w3.org/1999/xlink">
    <!-- Generator: Sketch 61 (89581) - https://sketch.com -->
    <title>Group 2@1x</title>
    <desc>Created with Sketch.</desc>
    <g id="Page-1" stroke="none" stroke-width="1" fill="none" fill-rule="evenodd">
        <g id="ST-Home-Page-v4" transform="translate(-676.000000, -231.000000)">
            <g id="Group-2" transform="translate(628.000000, 231.000000)">
                <g id="Group-4" transform="translate(51.000000, 0.000000)">
                    <path d="M527,199.571823 C512.455129,185.593581 492.690741,177 470.917883,177 C426.22817,177 390,213.204154 390,257.864242 C390,296.79574 417.530208,329.301477 454.19698,337" id="Shape-Copy" stroke="#B4DAFB" stroke-width="5" stroke-dasharray="5" transform="translate(458.500000, 257.000000) rotate(-210.000000) translate(-458.500000, -257.000000) "></path>
                    <rect id="Rectangle" fill="#DBEEFF" x="58" y="67" width="137" height="206"></rect>
                    <path d="M89.0109371,357 L431.989063,357 C434.750487,357 436.989063,359.238576 436.989063,362 C436.989063,362.305398 436.961083,362.610154 436.905473,362.910446 L435.5,370.5 C434.05119,378.323576 427.227064,384 419.27047,384 L101.72953,384 C93.7729356,384 86.9488104,378.323576 85.5,370.5 L84.0945271,362.910446 C83.5917015,360.195188 85.3852325,357.586416 88.1004908,357.08359 C88.4007832,357.02798 88.7055391,357 89.0109371,357 Z" id="Rectangle" stroke="#2B2B2B" stroke-width="5" fill="#D7D7D7"></path>
                    <line x1="42" y1="384.5" x2="481" y2="384.5" id="Line-2" stroke="#2B2B2B" stroke-width="5" stroke-linecap="round"></line>
                    <line x1="352.875" y1="404.5" x2="472.625" y2="404.5" id="Line-2-Copy" stroke="#2B2B2B" stroke-width="5" stroke-linecap="round"></line>
                    <path d="M111,173 L410,173 C415.522847,173 420,177.477153 420,183 L420,357 L420,357 L101,357 L101,183 C101,177.477153 105.477153,173 111,173 Z" id="Rectangle" stroke="#2B2B2B" stroke-width="5" fill="#D7D7D7"></path>
                    <path d="M115,182 L407,182 C409.761424,182 412,184.238576 412,187 L412,354 L412,354 L110,354 L110,187 C110,184.238576 112.238576,182 115,182 Z" id="Rectangle" fill="#E6F3FF"></path>
                    <rect id="Rectangle" fill="#2B2B2B" x="229" y="357" width="63" height="11"></rect>
                    <rect id="Rectangle" stroke="#2B2B2B" stroke-width="5" fill="#D7D7D7" x="361" y="224" width="103" height="180" rx="15"></rect>
                    <rect id="Rectangle" fill="#E6F3FF" x="369" y="232" width="87" height="164" rx="9"></rect>
                    <rect id="Rectangle" fill="#FFFFFF" x="400" y="244" width="47" height="139"></rect>
                    <rect id="Rectangle" fill="#E6F3FF" x="396" y="260" width="42" height="8"></rect>
                    <rect id="Rectangle-Copy" fill="#E6F3FF" x="396" y="275" width="42" height="8"></rect>
                    <rect id="Rectangle-Copy-2" fill="#E6F3FF" x="396" y="290" width="42" height="8"></rect>
                    <rect id="Rectangle-Copy-3" fill="#E6F3FF" x="396" y="305" width="31" height="8"></rect>
                    <circle id="Oval" fill="#2B2B2B" cx="407.5" cy="364.5" r="1.5"></circle>
                    <circle id="Oval-Copy-3" fill="#2B2B2B" cx="412.5" cy="364.5" r="1.5"></circle>
                    <circle id="Oval-Copy-4" fill="#2B2B2B" cx="417.5" cy="364.5" r="1.5"></circle>
                    <rect id="Rectangle" stroke="#2B2B2B" stroke-width="8" fill="#2B2B2B" stroke-linejoin="round" x="405" y="392" width="14" height="1"></rect>
                    <circle id="Oval" fill="#2B2B2B" cx="405.5" cy="232.5" r="2.5"></circle>
                    <line x1="412.5" y1="232.5" x2="422.5" y2="232.5" id="Line" stroke="#2B2B2B" stroke-width="5" stroke-linecap="round" stroke-linejoin="round"></line>
                    <ellipse id="Oval" fill="#A2DD89" cx="399.5" cy="54.5" rx="54.5" ry="54"></ellipse>
                    <g id="Group-15" transform="translate(378.000000, 29.000000)">
                        <g id="Shape-2" transform="translate(5.600000, 4.800000)" stroke="#F9F9F9" stroke-width="2.4">
                            <path d="M0,19.2 L0,0 L20.8,0 M33.4565517,19.2 L33.4565517,25.1234483 M22.7181034,38.2675862 L12.8,38.2675862" id="Shape"></path>
                        </g>
                        <g id="Group-14" transform="translate(0.434951, 0.427184)">
                            <ellipse id="Oval-Copy-6" fill="#F9F9F9" cx="35.5650485" cy="37.8252427" rx="5.6" ry="5.45242718"></ellipse>
                            <path d="M0.365048544,36.4455974 L0.365048544,45.9728155 L9.48685314,45.9728155 L36.3650485,17.8997955 L27.243358,8.37281553 L0.365048544,36.4455974 Z M43.6330429,10.8066199 C44.6090504,9.77638165 44.6090504,8.23023925 43.6330429,7.20000096 L37.8972401,1.14549425 C36.9212326,0.115255961 35.4564777,0.115255961 34.4804703,1.14549425 L29.9650485,5.91193137 L39.1175068,15.5728155 L43.6330429,10.8066199 L43.6330429,10.8066199 Z" id="Shape" stroke="#F9F9F9" stroke-width="2.4" fill-rule="nonzero"></path>
                        </g>
                    </g>
                    <rect id="Rectangle" stroke="#2B2B2B" stroke-width="5" fill="#FFFFFF" x="134" y="94" width="254" height="243" rx="5"></rect>
                    <rect id="Rectangle" fill="#E6F3FF" x="238" y="133" width="131" height="192"></rect>
                    <polyline id="Line-22" stroke="#333333" stroke-width="3" opacity="0.224283854" stroke-linecap="square" transform="translate(338.000000, 68.000000) scale(-1, 1) translate(-338.000000, -68.000000) " points="345 86.5 345 49.5 331 49.5"></polyline>
                    <path d="M352,189.082424 C341.701807,179.122926 327.708043,173 312.292224,173 C280.650602,173 255,198.79546 255,230.615773 C255,258.354465 274.492191,281.514802 300.453336,287" id="Shape" stroke="#B4DAFB" stroke-width="5" stroke-dasharray="5" transform="translate(303.500000, 230.000000) rotate(-180.000000) translate(-303.500000, -230.000000) "></path>
                    <rect id="Rectangle" fill="#F5F5F5" x="137" y="97" width="248" height="24"></rect>
                    <g id="Group-7" transform="translate(195.000000, 149.477366)" fill-rule="nonzero" stroke="#2B2B2B" stroke-linecap="square">
                        <path d="M57.034145,119.249913 L55.2419087,74.9317975 C41.7165181,73.2555279 37.9340474,69.1891217 43.8944966,62.7325787 C48.4205034,57.8298681 52.2029741,61.8962744 55.2419087,74.9317975 L64.6110493,74.9317975" id="Line-11" stroke-width="3"></path>
                        <path d="M81.034145,119.249913 L79.2419087,74.9317975 C65.7165181,73.2555279 61.9340474,69.1891217 67.8944966,62.7325787 C72.4205034,57.8298681 76.2029741,61.8962744 79.2419087,74.9317975 L88.6110493,74.9317975" id="Line-11-Copy" stroke-width="3" transform="translate(76.885359, 89.986273) scale(-1, 1) translate(-76.885359, -89.986273) "></path>
                        <path d="M65.159668,56.2226341 L65.159668,12.3183372 C55.2587891,-5.19303005 23.5039063,-5.19303005 25.9208984,19.8432395 C26.542056,26.2774635 4.94140625,12.3183372 4.94140625,43.6264427 C4.94140625,52.4890457 -6.17675781,52.4890457 4.94140625,73.7670677 C6.97678599,77.662392 4.95990291,85.0796905 10.3657227,91.3246849 C12.8998242,94.2521686 19.4580078,97.4565208 25.9208984,97.4565208 C26.939887,104.645084 28.45893,109.352603 30.4780273,111.579079 C32.8453232,114.189517 37.9058701,116.737369 45.659668,119.222634" id="Line-10" stroke-width="6"></path>
                        <path d="M130.319336,56.9452681 L130.319336,13.0409713 C120.418457,-4.47039598 88.6635742,-4.47039598 91.0805664,20.5658736 C91.701724,27.0000976 70.1010742,13.0409713 70.1010742,44.3490767 C70.1010742,53.2116797 58.9829102,53.2116797 70.1010742,74.4897017 C72.136454,78.3850261 70.1195709,85.8023245 75.5253906,92.0473189 C78.0594921,94.9748027 84.6176758,98.1791549 91.0805664,98.1791549 C92.099555,105.367718 93.618598,110.075237 95.6376953,112.301713 C98.0049912,114.912151 103.065538,117.460003 110.819336,119.945268" id="Line-10" stroke-width="6" transform="translate(97.739502, 60.333951) scale(-1, 1) translate(-97.739502, -60.333951) "></path>
                        <path d="M47.159668,12.7226341 C43.9211426,13.3029563 41.2097168,14.6852806 39.0253906,16.8696067 C36.8410645,19.0539329 35.5524902,21.6716087 35.159668,24.7226341" id="Line-35" stroke-width="6"></path>
                        <path d="M48.720109,92.2830751 C45.4815836,92.8633974 42.7701579,94.2457216 40.5858317,96.4300478 C38.4015055,98.614374 37.1129313,101.23205 36.720109,104.283075" id="Line-35-Copy" stroke-width="6" transform="translate(42.720109, 98.283075) rotate(-72.000000) translate(-42.720109, -98.283075) "></path>
                        <path d="M27.720109,62.2830751 C24.4815836,62.8633974 21.7701579,64.2457216 19.5858317,66.4300478 C17.4015055,68.614374 16.1129313,71.2320497 15.720109,74.2830751" id="Line-35-Copy-2" stroke-width="6" transform="translate(21.720109, 68.283075) rotate(-72.000000) translate(-21.720109, -68.283075) "></path>
                        <path d="M29.7013102,37.7564638 C26.4627848,38.3367861 23.751359,39.7191103 21.5670329,41.9034365 C19.3827067,44.0877626 18.0941325,46.7054384 17.7013102,49.7564638" id="Line-35-Copy-3" stroke-width="6" transform="translate(23.701310, 43.756464) rotate(75.000000) translate(-23.701310, -43.756464) "></path>
                        <path d="M95.159668,12.7226341 C91.9211426,13.3029563 89.2097168,14.6852806 87.0253906,16.8696067 C84.8410645,19.0539329 83.5524902,21.6716087 83.159668,24.7226341" id="Line-35" stroke-width="6" transform="translate(89.159668, 18.722634) scale(-1, 1) translate(-89.159668, -18.722634) "></path>
                        <path d="M93.5992269,92.2830751 C90.3607015,92.8633974 87.6492757,94.2457216 85.4649496,96.4300478 C83.2806234,98.614374 81.9920492,101.23205 81.5992269,104.283075" id="Line-35-Copy" stroke-width="6" transform="translate(87.599227, 98.283075) scale(-1, 1) rotate(-72.000000) translate(-87.599227, -98.283075) "></path>
                        <path d="M114.599227,62.2830751 C111.360702,62.8633974 108.649276,64.2457216 106.46495,66.4300478 C104.280623,68.614374 102.992049,71.2320497 102.599227,74.2830751" id="Line-35-Copy-2" stroke-width="6" transform="translate(108.599227, 68.283075) scale(-1, 1) rotate(-72.000000) translate(-108.599227, -68.283075) "></path>
                        <path d="M112.618026,37.7564638 C109.3795,38.3367861 106.668075,39.7191103 104.483748,41.9034365 C102.299422,44.0877626 101.010848,46.7054384 100.618026,49.7564638" id="Line-35-Copy-3" stroke-width="6" transform="translate(106.618026, 43.756464) scale(-1, 1) rotate(75.000000) translate(-106.618026, -43.756464) "></path>
                        <line x1="50.2805501" y1="128.222634" x2="80.0387858" y2="128.222634" id="Line-36" stroke-width="6"></line>
                        <line x1="50.2805501" y1="137.222634" x2="80.0387858" y2="137.222634" id="Line-36-Copy" stroke-width="6"></line>
                        <line x1="50.2805501" y1="146.222634" x2="80.0387858" y2="146.222634" id="Line-36-Copy-2" stroke-width="6"></line>
                        <line x1="59.2805501" y1="155.222634" x2="71.159668" y2="155.222634" id="Line-36-Copy-3" stroke-width="6"></line>
                    </g>
                    <line x1="146.5" y1="120.5" x2="376.5" y2="120.5" id="Line-23" stroke="#2B2B2B" stroke-width="5" stroke-linecap="square"></line>
                    <circle id="Oval" fill="#2B2B2B" cx="146.5" cy="107.5" r="3.5"></circle>
                    <circle id="Oval-Copy" fill="#2B2B2B" cx="157.5" cy="107.5" r="3.5"></circle>
                    <circle id="Oval-Copy-2" fill="#2B2B2B" cx="168.5" cy="107.5" r="3.5"></circle>
                    <circle id="Oval-Copy-15" fill="#45A8FF" cx="72.5" cy="313.5" r="4.5"></circle>
                    <circle id="Oval-Copy-17" fill="#45A8FF" cx="352.5" cy="49.5" r="4.5"></circle>
                    <circle id="Oval-Copy-31" fill="#45A8FF" cx="550.5" cy="88.5" r="4.5"></circle>
                    <circle id="Oval-Copy-32" fill="#45A8FF" cx="579.5" cy="238.5" r="4.5"></circle>
                    <line x1="572.5" y1="238.5" x2="518.5" y2="238.5" id="Line-5" stroke="#CCCCCC" stroke-width="3" stroke-linecap="square"></line>
                    <circle id="Oval-Copy-16" fill="#45A8FF" cx="93.5" cy="93.5" r="4.5"></circle>
                    <circle id="Oval-Copy-12" stroke="#45A8FF" stroke-width="6" cx="527.5" cy="350.5" r="9.5"></circle>
                    <circle id="Oval-Copy-13" stroke="#45A8FF" stroke-width="6" cx="88.5" cy="126.5" r="10.5"></circle>
                    <circle id="Oval-Copy-25" stroke="#45A8FF" stroke-width="6" cx="210.5" cy="36.5" r="10.5"></circle>
                    <circle id="Oval-Copy-18" stroke="#45A8FF" stroke-width="6" cx="595.5" cy="267.5" r="7.5"></circle>
                    <circle id="Oval-Copy-29" stroke="#45A8FF" stroke-width="6" cx="607.5" cy="216.5" r="7.5"></circle>
                    <circle id="Oval-Copy-30" stroke="#45A8FF" stroke-width="6" cx="557.5" cy="290.5" r="6.5"></circle>
                    <polyline id="Line-4" stroke="#45A8FF" stroke-width="3" stroke-linecap="square" points="550.5 291.5 508.5 291.5 508.5 268"></polyline>
                    <g id="Group-6" transform="translate(496.500000, 331.000000) scale(1, -1) translate(-496.500000, -331.000000) translate(479.000000, 313.000000)" stroke="#45A8FF">
                        <circle id="Oval-Copy-28" stroke-width="6" cx="27.5" cy="28.5" r="7.5"></circle>
                        <polyline id="Line-24-Copy-15" stroke-width="3" stroke-linecap="square" transform="translate(10.000000, 14.500000) scale(1, -1) translate(-10.000000, -14.500000) " points="20 0.3625 0 0 0 29"></polyline>
                    </g>
                    <circle id="Oval-Copy-26" stroke="#45A8FF" stroke-width="6" cx="490.5" cy="68.5" r="7.5"></circle>
                    <circle id="Oval-Copy-20" stroke="#45A8FF" stroke-width="6" cx="417.5" cy="109.5" r="7.5"></circle>
                    <circle id="Oval-Copy-21" stroke="#45A8FF" stroke-width="6" cx="587.5" cy="167.5" r="7.5"></circle>
                    <circle id="Oval-Copy-24" stroke="#45A8FF" stroke-width="6" cx="26.5" cy="248.5" r="7.5"></circle>
                    <circle id="Oval-Copy-27" stroke="#45A8FF" stroke-width="3" cx="46.5" cy="279.5" r="4.5"></circle>
                    <circle id="Oval-Copy-19" stroke="#45A8FF" stroke-width="6" cx="498" cy="234" r="10"></circle>
                    <circle id="Oval-Copy-14" fill="#45A8FF" cx="292.5" cy="64.5" r="10.5"></circle>
                    <circle id="Oval" fill="#FFBD87" cx="492" cy="148" r="62"></circle>
                    <g id="Group-2" transform="translate(460.000000, 116.000000)">
                        <path d="M34.4,46.4 L27.2,41.3004437 L27.2,39.3469388 L34.4,33.6 L34.4,36.9732032 L29.9845697,40.1874002 L34.4,43.049512 L34.4,46.4 Z M42.4,30.4 L37.9959596,48 L35.2,48 L39.6040404,30.4 L42.4,30.4 Z M45.6,43.049512 L50.0154303,40.1874002 L45.6,36.9732032 L45.6,33.6 L52.8,39.3469388 L52.8,41.3004437 L45.6,46.4 L45.6,43.049512 Z" id="&lt;/&gt;" fill="#F9F9F9" fill-rule="nonzero"></path>
                        <rect id="Rectangle" stroke="#F9F9F9" stroke-width="2.4" x="13.6" y="17.6" width="52" height="39.2" rx="1.6"></rect>
                        <path d="M12.7442292,30.4126953 C11.1019935,29.8449534 9.44768331,29.049462 8.14355526,27.9612903 L5.10058983,29.7354839 C4.90738531,29.8301072 4.71418189,29.8537638 4.52097737,29.8064516 C4.32777285,29.7591394 4.15871958,29.6645161 4.01381647,29.5225806 C2.17837737,27.5827961 0.85009807,25.3591394 0.0289807823,22.8516129 C-0.0193206247,22.6623652 -0.00724499659,22.4731186 0.0652065613,22.283871 C0.137658119,22.0946233 0.270485607,21.9526878 0.46369013,21.8580645 L3.50665556,20.083871 C3.21684933,18.4279574 3.21684933,16.7720426 3.50665556,15.116129 L0.46369013,13.3419355 C0.270485607,13.2473122 0.137658119,13.1053767 0.0652065613,12.916129 C-0.00724499659,12.7268814 -0.0193206247,12.5376348 0.0289807823,12.3483871 C0.85009807,9.84086058 2.17837737,7.61720394 4.01381647,5.67741935 C4.15871958,5.53548387 4.32777285,5.44086058 4.52097737,5.39354839 C4.71418189,5.3462362 4.90738531,5.36989283 5.10058983,5.46451613 L8.14355526,7.23870968 C9.44768331,6.150538 10.9208646,5.32258065 12.5631003,4.75483871 L12.5631003,1.27741935 C12.5631003,1.08817168 12.6234762,0.910752327 12.7442292,0.74516129 C12.8649822,0.579570253 13.0219598,0.473118641 13.2151643,0.425806452 C15.8717218,-0.141935484 18.5282782,-0.141935484 21.1848357,0.425806452 C21.3780402,0.473118641 21.5350178,0.579570253 21.6557708,0.74516129 C21.7765238,0.910752327 21.8368997,1.08817168 21.8368997,1.27741935 L21.8368997,4.75483871 C23.4791354,5.32258065 24.9523167,6.150538 26.2564447,7.23870968 L29.2994102,5.46451613 C29.4926147,5.36989283 29.6858181,5.3462362 29.8790226,5.39354839 C30.0722272,5.44086058 30.2412804,5.53548387 30.3861835,5.67741935 C32.2216226,7.61720394 33.5499019,9.84086058 34.3710192,12.3483871 C34.4193206,12.5376348 34.407245,12.7268814 34.3347934,12.916129 C34.2623419,13.1053767 34.1295144,13.2473122 33.9363099,13.3419355 L30.3861835,15.2225806 M23.2,17.6 C23.2,16.06 22.651667,14.741667 21.555,13.645 C20.458333,12.548333 19.14,12 17.6,12 C16.06,12 14.741667,12.548333 13.645,13.645 C12.548333,14.741667 12,16.06 12,17.6 C12,19.14 12.548333,20.458333 13.645,21.555 M31.2,14.4 L31.2,17.6" id="" stroke="#F9F9F9" stroke-width="2.4" fill-rule="nonzero"></path>
                        <line x1="17.2" y1="24" x2="62" y2="24" id="Line-7" stroke="#F9F9F9" stroke-width="1.2" stroke-linecap="square"></line>
                    </g>
                    <path d="M274.278059,87.2194338 C245.158797,59.2160155 205.589906,42 162,42 C72.5298705,42 -1.59161573e-12,114.529871 -1.59161573e-12,204 C-1.59161573e-12,281.993716 55.116292,347.114332 128.524256,362.537228" id="Shape" stroke="#B4DAFB" stroke-width="5" stroke-dasharray="5"></path>
                    <line x1="487.5" y1="234.5" x2="472.5" y2="234.5" id="Line-24-Copy-4" stroke="#45A8FF" stroke-width="3" stroke-linecap="square"></line>
                    <line x1="578" y1="167" x2="554.5" y2="166.5" id="Line-24-Copy-5" stroke="#45A8FF" stroke-width="3" stroke-linecap="square"></line>
                    <line x1="430.5" y1="166.5" x2="393.25" y2="166.5" id="Line-24-Copy-6" stroke="#45A8FF" stroke-width="3" stroke-linecap="square"></line>
                    <line x1="96.5" y1="248.5" x2="32.375" y2="248.25" id="Line-24-Copy-13" stroke="#45A8FF" stroke-width="3" stroke-linecap="square"></line>
                    <polyline id="Line-6" stroke="#45A8FF" stroke-width="3" stroke-linecap="square" points="72.5 248.5 72.5 279.5 51 279.5"></polyline>
                    <line x1="408.5" y1="109.5" x2="393.5" y2="109.5" id="Line-24-Copy-7" stroke="#45A8FF" stroke-width="3" stroke-linecap="square"></line>
                    <polyline id="Line-24-Copy-8" stroke="#45A8FF" stroke-width="3" stroke-linecap="square" points="480.5 68.5 453.5 68.5 453.5 94"></polyline>
                    <polyline id="Line-24-Copy-9" stroke="#45A8FF" stroke-width="3" stroke-linecap="square" transform="translate(238.500000, 62.500000) scale(-1, 1) translate(-238.500000, -62.500000) " points="252 37 225 37 225 88"></polyline>
                    <polyline id="Line-24-Copy" stroke="#CCCCCC" stroke-width="3" stroke-linecap="square" points="126.5 115.5 94 116 93.5 104"></polyline>
                    <polyline id="Line-24-Copy-2" stroke="#CCCCCC" stroke-width="3" stroke-linecap="square" transform="translate(83.500000, 298.000000) scale(1, -1) translate(-83.500000, -298.000000) " points="94 303.5 73.3181818 304 73 292"></polyline>
                    <polyline id="Line-3" stroke="#45A8FF" stroke-width="3" stroke-linecap="square" points="600 217.5 533 217.5 533 196.5"></polyline>
                    <line x1="587.5" y1="267.25" x2="472" y2="267.25" id="Line-24-Copy-3" stroke="#45A8FF" stroke-width="3" stroke-linecap="square"></line>
                    <line x1="514" y1="351" x2="473" y2="351" id="Line-24" stroke="#45A8FF" stroke-width="3" stroke-linecap="square"></line>
                    <line x1="126.5" y1="126.5" x2="99.5" y2="126.5" id="Line-24-Copy-12" stroke="#45A8FF" stroke-width="3" stroke-linecap="square"></line>
                </g>
                <g id="Group" transform="translate(438.000000, 61.000000)"></g>
                <g id="Group-16" transform="translate(246.000000, 149.000000)"></g>
                <g id="_ionicons_svg_md-create-(1)" transform="translate(525.000000, 130.000000)"></g>
            </g>
        </g>
    </g>
</svg>